<?xml version="1.0" standalone="no"?>
<!DOCTYPE svg PUBLIC "-//W3C//DTD SVG 20010904//EN"
 "http://www.w3.org/TR/2001/REC-SVG-20010904/DTD/svg10.dtd">
<svg version="1.0" xmlns="http://www.w3.org/2000/svg"
 width="1000.000000pt" height="750.000000pt" viewBox="0 0 1000.000000 750.000000"
 preserveAspectRatio="xMidYMid meet">

<g transform="translate(0.000000,750.000000) scale(0.100000,-0.100000)"
fill="#000000" stroke="none">
<path d="M0 3750 l0 -3750 5000 0 5000 0 0 3750 0 3750 -5000 0 -5000 0 0
-3750z m3557 2576 c24 -10 56 -34 73 -52 l30 -35 0 -514 0 -513 -23 -29 c-12
-15 -31 -46 -42 -68 -19 -38 -20 -65 -23 -537 l-3 -498 -280 0 -279 0 0 1068
c0 996 1 1069 18 1102 19 38 63 68 131 87 70 20 343 12 398 -11z m3287 9 c32
-9 72 -25 88 -37 57 -40 58 -47 58 -525 0 -429 0 -437 -18 -408 -27 44 -89 95
-152 124 -48 22 -71 26 -178 29 -129 4 -185 -4 -256 -39 -22 -10 -41 -19 -43
-19 -2 0 -3 171 -3 380 0 416 0 417 59 459 16 12 53 27 82 35 74 20 288 21
363 1z m-98 -1069 c13 -10 29 -28 34 -42 6 -15 10 -384 10 -942 l0 -917 24 25
c14 14 194 228 401 475 260 311 387 456 413 470 31 17 56 20 164 20 118 0 129
-2 150 -22 21 -21 21 -24 6 -55 -9 -18 -189 -238 -402 -488 -212 -250 -386
-457 -386 -460 0 -3 196 -236 435 -519 460 -544 466 -553 413 -582 -32 -17
-221 -23 -293 -10 -48 9 -67 19 -97 49 -20 20 -210 244 -423 497 -212 253
-390 462 -395 463 -6 2 -10 -168 -10 -462 0 -271 -4 -475 -10 -490 -13 -36
-47 -54 -112 -62 -91 -11 -167 3 -200 36 l-28 28 0 1471 0 1470 23 26 c12 15
38 31 57 35 55 14 196 5 226 -14z m-4467 -200 c17 -10 36 -28 41 -42 6 -15 10
-260 10 -605 l0 -579 740 0 740 0 0 591 c0 359 4 597 10 608 17 32 69 46 170
45 105 0 156 -18 165 -57 3 -12 4 -640 3 -1396 l-3 -1374 -28 -21 c-25 -18
-42 -21 -142 -21 -100 0 -117 3 -142 21 l-28 21 -3 637 -2 636 -740 0 -740 0
0 -614 c0 -367 -4 -625 -10 -640 -15 -41 -52 -58 -142 -63 -92 -6 -158 7 -189
38 -19 19 -19 45 -19 1397 0 1123 2 1382 13 1396 33 44 225 58 296 22z m3579
-712 c84 -35 109 -90 92 -201 -12 -75 -36 -131 -62 -147 -12 -7 -36 -4 -88 13
-101 33 -222 28 -298 -14 -58 -32 -168 -128 -204 -178 l-23 -32 -5 -769 -5
-769 -28 -21 c-24 -18 -42 -21 -125 -21 -111 0 -155 14 -171 53 -7 18 -12 309
-14 902 -2 869 -3 876 -25 984 l-23 109 23 24 c46 46 209 70 255 38 25 -18 56
-95 73 -183 7 -34 15 -62 19 -62 3 0 20 19 36 41 83 114 243 225 355 249 58
12 171 4 218 -16z m-1184 -271 c13 -32 27 -287 24 -418 l-3 -130 -147 -3 -148
-3 0 286 0 285 134 0 c117 0 135 -2 140 -17z m1531 -269 l0 -279 -347 -3 -348
-2 0 93 c0 89 1 94 28 119 41 39 94 68 123 68 14 0 52 -9 85 -21 201 -70 357
22 420 249 32 115 39 74 39 -224z m-2633 -1056 c3 -583 1 -562 64 -645 l24
-32 0 -406 c0 -467 4 -447 -89 -492 -50 -25 -67 -27 -200 -31 -213 -6 -314 24
-347 104 -12 28 -14 203 -14 1034 l0 1000 280 0 279 0 3 -532z m3413 -1475
c-8 -46 -48 -89 -103 -110 -39 -15 -76 -18 -217 -18 -191 0 -238 11 -291 66
l-29 30 -3 395 c-1 217 -1 394 1 394 2 0 21 -9 43 -19 71 -35 127 -43 256 -39
107 3 130 7 180 30 62 29 143 97 155 131 9 25 17 -811 8 -860z"/>
</g>
</svg>
