<?xml version="1.0" standalone="no"?>
<!DOCTYPE svg PUBLIC "-//W3C//DTD SVG 20010904//EN"
 "http://www.w3.org/TR/2001/REC-SVG-20010904/DTD/svg10.dtd">
<svg version="1.0" xmlns="http://www.w3.org/2000/svg"
 width="1000.000000pt" height="750.000000pt" viewBox="0 0 1000.000000 750.000000"
 preserveAspectRatio="xMidYMid meet">

<g transform="translate(0.000000,750.000000) scale(0.100000,-0.100000)"
fill="#000000" stroke="none">
<path d="M4740 6366 c-313 -40 -597 -128 -890 -277 -230 -116 -421 -249 -627
-436 -65 -59 -111 -99 -103 -88 8 11 0 7 -18 -10 -18 -16 -30 -35 -28 -41 2
-6 -10 -25 -27 -40 l-32 -29 30 35 30 35 -32 -29 c-18 -16 -30 -32 -28 -36 3
-5 -3 -16 -13 -27 -9 -10 -15 -14 -12 -8 9 20 -45 -47 -107 -134 -189 -262
-342 -599 -402 -887 -27 -129 -68 -364 -76 -434 -4 -41 -3 -51 6 -40 8 11 9 0
4 -45 -15 -147 -16 -214 -5 -270 6 -33 15 -110 19 -171 4 -60 11 -116 15 -122
4 -7 9 -31 11 -55 6 -68 95 -370 124 -417 5 -8 23 -49 41 -90 42 -99 137 -287
164 -325 12 -16 41 -62 64 -101 66 -111 243 -326 382 -464 415 -413 956 -669
1548 -731 167 -17 524 -7 681 20 273 47 478 114 736 241 173 85 361 204 493
312 83 67 312 317 371 404 30 43 66 93 81 109 31 34 150 208 150 219 0 4 -4 4
-10 1 -17 -11 -11 7 44 132 144 321 217 650 214 968 -1 157 -1 158 -9 65 -28
-323 -53 -472 -113 -671 -50 -164 -95 -266 -198 -446 -122 -213 -204 -320
-383 -498 -197 -198 -297 -279 -460 -375 -60 -35 -30 -9 57 49 101 67 235 180
323 272 l70 73 -83 -75 c-46 -41 -103 -90 -125 -110 -68 -59 -192 -145 -296
-205 -53 -31 -120 -71 -150 -90 -49 -30 -230 -108 -237 -101 -2 1 44 24 102
51 57 27 103 50 101 52 -2 2 -48 -16 -103 -40 -339 -149 -731 -229 -1029 -209
l-120 7 190 7 c200 7 371 24 414 41 14 5 62 19 106 29 200 49 385 118 574 214
137 70 311 180 376 240 36 33 34 32 -20 -8 -139 -101 -340 -225 -350 -215 -3
3 43 33 102 68 118 70 284 191 323 235 14 16 -4 4 -40 -25 -168 -138 -590
-370 -673 -370 -11 0 -39 -9 -61 -19 -42 -20 -179 -57 -321 -86 -198 -41 -447
-57 -552 -35 -26 5 -106 14 -178 19 -201 16 -413 80 -731 223 -131 59 -187 95
-385 249 -276 214 -475 428 -609 655 -179 303 -286 613 -332 964 -18 141 -15
461 6 600 65 432 236 828 501 1160 37 47 74 95 82 108 9 12 21 22 28 22 15 0
47 34 39 42 -8 8 127 140 216 211 365 292 845 482 1300 513 52 4 108 13 123
21 45 23 213 11 497 -36 53 -9 67 -8 75 3 9 12 24 10 96 -13 105 -34 116 -40
98 -53 -10 -6 -7 -7 10 -3 17 5 21 4 16 -5 -5 -9 -1 -10 15 -5 13 4 20 3 17
-2 -7 -11 239 -110 261 -105 8 2 11 -1 8 -6 -3 -6 2 -8 14 -5 11 3 36 -5 57
-17 21 -12 46 -24 56 -25 9 -2 55 -26 100 -54 263 -159 547 -427 708 -669 49
-73 83 -117 64 -82 -56 101 -186 270 -304 395 l-66 70 58 -55 c63 -59 198
-219 263 -310 21 -30 45 -61 52 -69 7 -7 22 -31 33 -52 17 -34 17 -39 4 -39
-13 0 -10 -12 17 -60 18 -33 36 -60 41 -60 9 0 4 10 -25 52 -20 29 -22 38 -9
38 21 0 134 -268 200 -474 23 -71 45 -134 50 -140 21 -26 66 -322 75 -491 2
-38 2 2 0 90 -3 208 -36 383 -116 635 -39 123 -123 319 -148 345 -11 11 -26
39 -34 62 -19 53 -134 224 -235 350 -115 143 -305 323 -476 451 -506 378
-1175 533 -1857 430 -42 -6 -76 -14 -74 -17 2 -3 -15 -7 -39 -7 -27 -1 -58
-11 -86 -28 -24 -15 -35 -25 -23 -21 12 3 58 13 103 23 45 10 79 21 75 25 -10
10 47 8 71 -3 18 -8 16 -9 -8 -9 -60 -2 -237 -44 -370 -88 -331 -110 -677
-323 -992 -611 -31 -28 -28 -24 10 17 76 82 305 280 350 303 22 12 67 40 100
63 33 23 123 73 200 110 153 74 151 73 143 80 -3 4 -58 -19 -122 -49 -64 -30
-116 -53 -116 -51 0 8 153 87 250 128 320 135 594 190 945 191 444 0 817 -91
1225 -300 188 -96 325 -195 521 -379 58 -55 118 -108 133 -118 14 -10 25 -21
23 -25 -1 -4 18 -28 42 -52 123 -126 219 -267 331 -483 42 -81 80 -144 84
-140 5 5 5 -3 1 -16 -5 -18 -4 -22 6 -16 9 6 10 3 5 -11 -4 -10 -4 -15 0 -11
11 11 56 -106 95 -248 27 -94 35 -113 37 -87 3 32 -7 70 -50 192 -11 30 -36
103 -57 162 -44 123 -161 345 -266 503 -144 217 -344 428 -559 589 -157 118
-254 176 -557 332 -113 59 -350 127 -569 165 -159 27 -584 36 -750 15z m135
-136 c-16 -4 -39 -8 -50 -9 -16 -1 -17 1 -5 9 8 5 31 9 50 9 l35 -1 -30 -8z
m-162 -17 c-7 -2 -19 -2 -25 0 -7 3 -2 5 12 5 14 0 19 -2 13 -5z m295 -40
c-10 -2 -26 -2 -35 0 -10 3 -2 5 17 5 19 0 27 -2 18 -5z m185 0 c-13 -2 -35
-2 -50 0 -16 2 -5 4 22 4 28 0 40 -2 28 -4z m253 -21 c-16 -2 -32 0 -37 5 -5
5 7 7 29 4 34 -5 35 -6 8 -9z m284 -22 c0 -13 -11 -13 -30 0 -12 8 -11 10 8
10 12 0 22 -4 22 -10z m190 -106 c12 -12 8 -12 -25 2 -50 20 -59 29 -20 20 17
-4 37 -14 45 -22z m170 -74 c8 -5 11 -10 5 -10 -5 0 -17 5 -25 10 -8 5 -10 10
-5 10 6 0 17 -5 25 -10z m341 -147 c10 -12 5 -11 -18 6 -18 12 -33 24 -33 27
0 9 37 -15 51 -33z m164 -123 c10 -11 16 -20 13 -20 -3 0 -13 9 -23 20 -10 11
-16 20 -13 20 3 0 13 -9 23 -20z m-3440 -320 c-36 -44 -101 -134 -145 -200
-84 -126 -111 -156 -59 -67 57 96 248 347 264 347 3 0 -25 -36 -60 -80z m2915
-3915 c-14 -8 -29 -14 -35 -14 -5 0 1 6 15 14 14 8 30 14 35 14 6 0 -1 -6 -15
-14z m-70 -30 c-14 -8 -29 -14 -35 -14 -5 0 1 6 15 14 14 8 30 14 35 14 6 0
-1 -6 -15 -14z m-50 -19 c0 -2 -37 -18 -82 -36 -106 -41 -324 -96 -408 -104
-47 -4 -26 2 75 23 77 17 199 50 270 74 139 47 145 49 145 43z m-587 -153 c-7
-2 -19 -2 -25 0 -7 3 -2 5 12 5 14 0 19 -2 13 -5z"/>
<path d="M4220 6133 c-82 -31 -116 -50 -106 -60 3 -4 170 60 176 67 3 4 14 12
25 18 37 21 1 12 -95 -25z"/>
<path d="M5742 3748 l3 -903 123 -3 122 -3 0 906 0 905 -125 0 -125 0 2 -902z"/>
<path d="M3180 3715 l0 -875 130 0 130 0 2 383 3 382 393 3 392 2 0 -385 0
-385 130 0 130 0 0 875 0 875 -130 0 -130 0 0 -375 0 -375 -395 0 -395 0 0
375 0 375 -130 0 -130 0 0 -875z"/>
<path d="M7566 4335 c3 -27 10 -57 15 -65 10 -16 8 -2 -11 75 -9 39 -9 39 -4
-10z"/>
<path d="M5359 4156 c-97 -26 -172 -89 -216 -180 l-18 -39 -5 109 -5 109 -125
0 -125 0 0 -655 0 -655 125 0 125 0 5 410 c5 392 6 412 27 463 68 166 197 242
356 209 l37 -8 0 119 c0 116 -1 120 -22 126 -36 9 -109 6 -159 -8z"/>
<path d="M6259 3853 c-134 -170 -243 -315 -243 -323 0 -8 112 -167 248 -352
l248 -338 144 0 c90 0 144 4 144 10 0 6 -113 161 -251 345 -182 242 -249 338
-242 347 6 7 117 146 247 310 130 163 236 299 236 302 0 3 -65 6 -144 6 l-145
0 -242 -307z"/>
<path d="M6604 1868 l-19 -23 23 19 c21 18 27 26 19 26 -2 0 -12 -10 -23 -22z"/>
</g>
</svg>
