<?xml version="1.0" standalone="no"?>
<!DOCTYPE svg PUBLIC "-//W3C//DTD SVG 20010904//EN"
 "http://www.w3.org/TR/2001/REC-SVG-20010904/DTD/svg10.dtd">
<svg version="1.0" xmlns="http://www.w3.org/2000/svg"
 width="1000.000000pt" height="1125.000000pt" viewBox="0 0 1000.000000 1125.000000"
 preserveAspectRatio="xMidYMid meet">

<g transform="translate(0.000000,1125.000000) scale(0.100000,-0.100000)"
fill="#000000" stroke="none">
<path d="M4755 10689 c-680 -53 -1285 -220 -1900 -524 -335 -166 -566 -308
-855 -526 -284 -215 -570 -480 -774 -719 -49 -58 -98 -114 -109 -125 -20 -20
-20 -20 -2 12 10 17 74 92 143 165 68 73 130 147 138 163 34 69 -232 -238
-397 -460 -320 -430 -579 -928 -739 -1420 -58 -181 -127 -454 -140 -561 -6
-49 -29 -177 -51 -285 -21 -108 -39 -216 -39 -240 0 -24 -7 -82 -15 -129 -18
-105 -19 -139 0 -90 24 66 29 5 10 -148 -10 -81 -20 -176 -23 -212 -5 -80 14
-292 32 -357 8 -27 17 -115 20 -198 3 -82 13 -181 21 -220 13 -61 14 -64 10
-20 -5 67 11 28 18 -45 4 -37 3 -47 -2 -30 -18 52 -10 -10 18 -130 60 -258
207 -732 221 -710 5 8 14 -8 25 -45 9 -32 36 -97 59 -144 24 -47 54 -115 67
-151 13 -36 43 -98 67 -138 23 -41 67 -122 96 -180 30 -59 74 -134 99 -167 24
-33 55 -80 67 -105 103 -206 467 -660 779 -970 679 -676 1546 -1139 2491
-1330 381 -77 708 -106 1105 -97 472 11 878 73 1308 198 276 81 636 223 733
290 23 15 72 40 110 54 155 58 292 141 745 453 163 112 444 364 492 442 12 19
64 78 117 130 114 115 227 253 328 404 40 61 95 134 120 162 84 91 292 408
278 422 -4 3 -12 0 -18 -6 -15 -15 -28 -15 -28 -1 0 6 25 63 56 127 315 654
490 1421 470 2051 -8 253 -23 358 -25 176 -3 -265 -37 -615 -86 -881 -95 -516
-253 -957 -478 -1334 -40 -69 -104 -178 -142 -243 -168 -294 -389 -554 -840
-988 -244 -235 -560 -456 -910 -638 -123 -64 -107 -51 45 35 166 94 405 256
560 381 141 112 368 328 473 448 76 86 48 64 -108 -85 -326 -312 -541 -475
-872 -657 -88 -49 -175 -101 -193 -116 -47 -40 -106 -73 -228 -127 -108 -47
-342 -133 -348 -128 -1 2 81 41 184 86 103 45 212 98 242 118 67 43 62 42
-120 -39 -700 -312 -1445 -467 -2064 -428 -313 19 -282 28 124 34 206 3 422
10 480 16 180 20 310 41 359 61 26 10 99 30 162 45 762 180 1453 520 1986 977
56 48 105 93 109 100 4 7 -30 -20 -77 -58 -176 -149 -443 -338 -631 -448 -99
-58 -295 -156 -313 -156 -5 0 51 35 125 78 254 148 442 271 597 391 105 81
223 189 223 203 0 5 -28 -16 -62 -47 -161 -146 -447 -337 -746 -499 -252 -136
-598 -288 -611 -267 -8 13 -110 -20 -148 -48 -51 -37 -573 -159 -859 -200
-318 -46 -670 -53 -829 -16 -38 9 -155 20 -260 25 -360 17 -707 114 -1270 355
-420 179 -474 210 -835 488 -337 259 -442 349 -646 552 -272 271 -447 491
-625 786 -568 946 -784 2070 -604 3147 128 760 462 1504 948 2106 56 70 124
156 152 191 30 40 52 60 56 53 9 -15 52 12 76 48 14 21 14 27 3 34 -11 7 11
34 85 110 718 734 1835 1232 2885 1286 110 5 132 10 185 35 59 29 61 30 185
24 69 -3 142 -8 163 -11 21 -2 36 -1 33 4 -6 10 100 3 129 -9 16 -6 11 -8 -20
-10 -22 -1 7 -5 65 -10 58 -4 188 -21 290 -37 102 -17 210 -33 240 -36 l55 -5
-55 13 c-52 13 -53 14 -18 15 20 0 38 7 41 14 3 9 21 8 78 -7 94 -24 326 -108
279 -101 -40 6 -35 3 83 -41 125 -48 61 -35 -108 21 -93 31 -172 54 -177 53
-5 -2 30 -16 79 -32 140 -45 499 -180 639 -241 157 -69 175 -75 104 -36 -62
34 -57 39 14 15 26 -9 56 -14 66 -11 13 3 18 1 13 -6 -4 -7 0 -8 11 -4 11 5
15 3 10 -5 -5 -8 -2 -9 10 -5 11 5 15 3 10 -4 -4 -7 -1 -10 7 -7 13 5 89 -27
89 -37 0 -3 -18 4 -40 15 -22 11 -40 18 -40 16 0 -11 116 -70 139 -71 51 -3
407 -236 624 -407 467 -371 893 -869 1114 -1303 70 -139 99 -185 114 -185 11
0 -17 56 -60 119 -24 36 -27 47 -18 62 10 16 13 15 30 -13 32 -53 146 -306
208 -459 61 -154 158 -439 204 -602 17 -57 33 -97 40 -97 16 0 46 -125 85
-355 37 -220 60 -460 61 -654 1 -134 3 -148 11 -101 13 77 3 491 -16 630 -55
396 -166 822 -313 1195 -78 200 -159 366 -193 396 -16 15 -34 46 -40 70 -19
71 -66 154 -186 334 -315 472 -712 892 -1155 1221 -317 236 -396 285 -669 422
-312 157 -629 274 -965 357 -586 146 -1231 182 -1845 104 -294 -37 -426 -66
-510 -110 -79 -43 -110 -66 -75 -55 51 15 227 55 293 66 76 14 103 37 31 27
-23 -3 -38 -2 -33 3 15 13 197 24 190 11 -4 -6 -14 -11 -23 -11 -9 0 -14 -3
-11 -6 3 -3 43 2 88 10 99 19 123 20 97 5 -10 -6 -68 -17 -130 -25 -772 -98
-1630 -488 -2278 -1035 -42 -35 -132 -111 -200 -169 -322 -271 -411 -374 -727
-843 -85 -125 -156 -227 -159 -227 -10 0 71 138 162 275 168 254 334 453 582
696 234 230 614 559 646 559 16 0 107 57 225 143 79 56 170 107 192 107 5 0
54 25 109 55 133 75 326 158 566 245 110 40 202 75 205 78 3 2 -11 1 -30 -2
-28 -5 -24 -2 18 15 28 11 52 24 52 29 0 12 -205 -56 -402 -135 -26 -10 -22
-27 5 -21 12 3 4 -3 -18 -13 -28 -14 -42 -16 -47 -8 -5 8 -23 4 -65 -13 -79
-32 -379 -178 -480 -234 -46 -25 -83 -43 -83 -41 0 12 277 167 435 245 475
234 973 381 1505 446 183 22 671 30 882 15 517 -38 1021 -152 1493 -338 156
-61 556 -250 680 -321 281 -160 540 -362 872 -678 95 -90 178 -164 186 -164 7
0 31 -19 52 -41 22 -23 32 -39 23 -36 -23 8 -23 2 4 -33 14 -20 28 -28 39 -25
17 6 47 -21 36 -32 -4 -3 28 -43 71 -87 250 -262 487 -640 712 -1138 24 -53
46 -96 48 -94 2 2 -10 39 -27 82 -17 43 -29 79 -27 81 6 6 84 -178 130 -308
45 -125 106 -325 146 -476 23 -88 47 -114 35 -40 -5 31 -3 38 5 27 15 -21 4
28 -27 115 -14 39 -29 90 -33 115 -11 58 -59 191 -93 255 -15 27 -27 58 -27
69 0 31 -59 193 -119 326 -65 142 -273 526 -362 668 -444 703 -1109 1302
-1879 1689 -113 57 -216 113 -229 124 -47 39 -112 71 -268 129 -382 142 -784
234 -1243 285 -173 20 -717 28 -895 14z m275 -270 c-190 -5 -269 -10 -310 -22
-30 -9 -71 -16 -90 -16 l-35 1 35 9 c19 5 44 14 55 19 27 13 100 16 370 16
l230 0 -255 -7z m-162 -26 c-16 -2 -40 -2 -55 0 -16 2 -3 4 27 4 30 0 43 -2
28 -4z m1636 -14 c39 -11 76 -25 81 -31 11 -12 -3 -8 -103 27 -84 30 -72 32
22 4z m-1462 -81 c-47 -7 -85 -6 -110 0 -30 8 -18 10 73 10 l110 -1 -73 -9z
m378 -3 l105 -12 -141 -2 c-118 -1 -143 2 -148 14 -7 19 33 19 184 0z m173
-22 c-13 -2 -33 -2 -45 0 -13 2 -3 4 22 4 25 0 35 -2 23 -4z m327 -17 c54 -14
53 -14 -60 -9 -117 6 -155 12 -84 14 39 1 39 1 9 10 -52 14 74 0 135 -15z
m-222 7 c-10 -2 -28 -2 -40 0 -13 2 -5 4 17 4 22 1 32 -1 23 -4z m725 -55 c5
-17 2 -18 -26 -12 -39 8 -47 12 -47 25 0 6 9 7 21 4 14 -5 19 -3 15 3 -3 6 2
8 13 5 11 -3 21 -14 24 -25z m-376 -24 c-3 -3 -12 -4 -19 -1 -8 3 -5 6 6 6 11
1 17 -2 13 -5z m620 -126 c65 -23 119 -45 121 -49 2 -4 9 -7 15 -5 7 1 9 1 4
-1 -4 -3 -4 -9 -1 -15 4 -6 3 -9 -2 -7 -5 2 -43 17 -84 34 -41 16 -76 33 -78
37 -2 4 -25 14 -53 23 -27 9 -49 18 -49 21 0 7 5 5 127 -38z m193 -68 c8 -5
11 -10 5 -10 -5 0 -17 5 -25 10 -8 5 -10 10 -5 10 6 0 17 -5 25 -10z m48 -19
c11 -6 10 -10 -4 -15 -9 -3 -19 -4 -22 -1 -3 3 1 5 9 5 11 0 11 2 -1 10 -8 5
-10 10 -5 10 6 0 16 -4 23 -9z m47 -31 c-3 -5 -1 -10 6 -10 7 0 10 -2 7 -5 -3
-3 -13 -2 -22 1 -14 5 -15 9 -4 15 17 11 20 11 13 -1z m108 -54 c62 -25 79
-36 55 -36 -30 0 -108 32 -102 42 4 6 -2 8 -17 3 -19 -5 -21 -4 -9 4 8 6 15
11 15 11 0 0 26 -11 58 -24z m346 -172 c14 -12 -19 -1 -35 12 -18 14 -18 14 6
3 14 -6 27 -13 29 -15z m301 -81 c34 -22 90 -75 90 -85 0 -8 -116 77 -125 93
-9 14 8 11 35 -8z m440 -349 l25 -28 -25 20 c-61 46 -120 99 -120 107 0 10 84
-59 120 -99z m306 -307 c178 -185 356 -398 518 -620 47 -65 86 -115 86 -110 0
10 26 -32 81 -133 24 -43 35 -73 26 -65 -12 9 -17 10 -17 2 0 -24 -19 1 -80
106 -144 248 -340 507 -548 726 -179 188 -187 197 -175 197 6 0 55 -46 109
-103z m405 -144 c13 -16 12 -17 -3 -4 -10 7 -18 15 -18 17 0 8 8 3 21 -13z
m748 -1118 c0 -5 -6 1 -14 15 -8 14 -14 30 -14 35 0 6 6 -1 14 -15 8 -14 14
-29 14 -35z m-2289 -6400 c0 -7 -239 -125 -385 -190 -435 -192 -879 -309
-1255 -329 l-95 -5 102 14 c519 70 1045 227 1488 445 161 78 145 71 145 65z"/>
<path d="M7230 9750 c30 -16 60 -29 65 -29 6 0 -15 13 -45 29 -30 16 -59 29
-65 29 -5 0 15 -13 45 -29z"/>
<path d="M6440 5625 l0 -1745 243 2 242 3 0 1740 0 1740 -242 3 -243 2 0
-1745z"/>
<path d="M1500 5560 l0 -1680 255 0 255 0 0 735 0 735 755 0 755 0 0 -735 0
-735 260 0 260 0 0 1680 0 1680 -260 0 -260 0 0 -725 0 -725 -752 2 -753 3 -3
723 -2 722 -255 0 -255 0 0 -1680z"/>
<path d="M9940 6849 c0 -50 31 -212 46 -237 l15 -27 -6 30 c-18 106 -47 251
-51 254 -2 2 -4 -7 -4 -20z"/>
<path d="M5725 6414 c-193 -42 -344 -162 -445 -358 l-40 -76 -2 212 -3 213
-242 3 -243 2 0 -1265 0 -1265 245 0 245 0 0 728 c0 465 4 750 11 788 49 279
228 514 433 569 78 21 256 17 324 -8 l42 -16 0 238 0 238 -37 7 c-65 10 -215
5 -288 -10z"/>
<path d="M7883 6388 c-55 -60 -926 -1173 -927 -1185 -1 -7 215 -308 479 -668
l480 -654 293 0 292 -1 -495 660 -496 661 105 132 c57 73 271 341 475 597 204
256 371 468 371 473 0 4 -125 7 -278 7 -276 0 -279 0 -299 -22z"/>
</g>
</svg>
